<?xml version="1.0" encoding="UTF-8"?>
<svg version="1.1" xmlns="http://www.w3.org/2000/svg" width="432" height="432">
<path d="M0 0 C16.83 0 33.66 0 51 0 C51.226875 8.270625 51.45375 16.54125 51.6875 25.0625 C51.78764404 27.62008057 51.88778809 30.17766113 51.9909668 32.81274414 C52.34003223 48.37539857 49.45265597 59.75516982 41.56648254 73.19676208 C39.22677575 77.38369338 37.14497653 81.71004694 35 86 C26.42 86 17.84 86 9 86 C9.81652001 81.91739993 10.63006257 79.3342325 12.3984375 75.69140625 C12.87796875 74.69689453 13.3575 73.70238281 13.8515625 72.67773438 C14.60566406 71.13569336 14.60566406 71.13569336 15.375 69.5625 C15.87 68.53833984 16.365 67.51417969 16.875 66.45898438 C19.21687795 61.62181669 21.59644769 56.80710463 24 52 C16.08 52 8.16 52 0 52 C0 34.84 0 17.68 0 0 Z " fill="#FFFFFF" transform="translate(224,173)"/>
<path d="M0 0 C16.83 0 33.66 0 51 0 C53.41933668 59.27374856 53.41933668 59.27374856 35 85 C34 86 34 86 31.49975586 86.11352539 C30.41573486 86.10828857 29.33171387 86.10305176 28.21484375 86.09765625 C26.46010742 86.09282227 26.46010742 86.09282227 24.66992188 86.08789062 C23.43822266 86.07951172 22.20652344 86.07113281 20.9375 86.0625 C19.08415039 86.05573242 19.08415039 86.05573242 17.19335938 86.04882812 C14.12885883 86.03699608 11.06445279 86.02051173 8 86 C9.38097659 81.5251617 11.14918679 77.46797526 13.2578125 73.2890625 C13.56572723 72.67606293 13.87364197 72.06306335 14.19088745 71.43148804 C15.16515063 69.49406342 16.14496917 67.5595124 17.125 65.625 C17.7907353 64.30357212 18.45610353 62.98195924 19.12109375 61.66015625 C20.74248806 58.43758453 22.37138131 55.21896696 24 52 C16.08 52 8.16 52 0 52 C0 34.84 0 17.68 0 0 Z " fill="#FFFFFF" transform="translate(157,173)"/>
</svg>
